<?xml version="1.0" encoding="UTF-8"?>
<svg width="156px" height="120px"
     viewBox="0 0 78 60" version="1.1"
     xmlns="http://www.w3.org/2000/svg" xmlns:xlink="http://www.w3.org/1999/xlink">
    <title>Web-Authentication-Server</title>

    <g id="Lock-and-Feeling" stroke="none" stroke-width="1" fill="none" fill-rule="evenodd">

        <g id="Server" fill-rule="nonzero">
            <path d="M2,48 L76,48 C77.1045695,48 78,48.8954305 78,50 L78,58 C78,59.1045695 77.1045695,60 76,60 L2,60 C0.8954305,60 1.3527075e-16,59.1045695 0,58 L0,50 C-1.3527075e-16,48.8954305 0.8954305,48 2,48 Z"
                  id="Rectangle-8" fill="#595B5C"></path>
            <path d="M2,32 L76,32 C77.1045695,32 78,32.8954305 78,34 L78,42 C78,43.1045695 77.1045695,44 76,44 L2,44 C0.8954305,44 1.3527075e-16,43.1045695 0,42 L0,34 C-1.3527075e-16,32.8954305 0.8954305,32 2,32 Z"
                  id="Rectangle-8" fill="#595B5C"></path>
            <path d="M2,16 L76,16 C77.1045695,16 78,16.8954305 78,18 L78,26 C78,27.1045695 77.1045695,28 76,28 L2,28 C0.8954305,28 1.3527075e-16,27.1045695 0,26 L0,18 C-1.3527075e-16,16.8954305 0.8954305,16 2,16 Z"
                  id="Rectangle-8" fill="#595B5C"></path>
            <path d="M2,0 L76,0 C77.1045695,-2.02906125e-16 78,0.8954305 78,2 L78,10 C78,11.1045695 77.1045695,12 76,12 L2,12 C0.8954305,12 1.3527075e-16,11.1045695 0,10 L0,2 C-1.3527075e-16,0.8954305 0.8954305,2.02906125e-16 2,0 Z"
                  id="Rectangle-8" fill="#595B5C"></path>
            <circle id="Oval-6" fill="#34E27A" cx="62" cy="6" r="2"></circle>
            <circle id="Oval-6" fill="#000000" cx="62" cy="22" r="2"></circle>
            <circle id="Oval-6" fill="#000000" cx="62" cy="38" r="2"></circle>
            <circle id="Oval-6" fill="#000000" cx="62" cy="54" r="2"></circle>
        </g>
    </g>
</svg>
